<svg width="140" height="28" viewBox="0 0 140 28" fill="none" xmlns="http://www.w3.org/2000/svg">
<g clip-path="url(#clip0_3684_175404)">
<path d="M44.666 9.79608H41.5416V15.1472C41.5416 15.7503 41.7838 16.1356 42.271 16.2945C42.7553 16.4563 43.5556 16.5063 44.6689 16.4445V20.5542C41.7749 20.8572 39.7727 20.5807 38.6623 19.7217C37.549 18.8656 36.9938 17.3388 36.9938 15.1413V9.7902H34.5664V5.43634H36.9938V1.20898H41.5446V5.44223H44.6689V9.79608H44.666Z" fill="#00CC57"/>
<path d="M50.3996 14.8118C50.9252 16.2239 52.1389 16.927 54.0407 16.927C55.2751 16.927 56.2467 16.5445 56.9525 15.7797L60.5936 17.8654C59.0964 19.9423 56.8905 20.9778 53.9787 20.9778C51.4302 20.9778 49.3926 20.2218 47.8658 18.7097C46.3391 17.1976 45.5742 15.2943 45.5742 12.9967C45.5742 10.6992 46.3273 8.81937 47.8363 7.29846C49.3424 5.77755 51.2796 5.01562 53.648 5.01562C55.8539 5.01562 57.6878 5.77755 59.1555 7.29846C60.6232 8.81937 61.3555 10.7198 61.3555 12.9967C61.3555 13.641 61.2935 14.247 61.1724 14.8089H50.3996V14.8118ZM50.308 11.4258H56.8314C56.3855 9.83428 55.3135 9.03706 53.6155 9.03706C51.9175 9.03706 50.7539 9.83428 50.308 11.4258Z" fill="#00CC57"/>
<path d="M74.1909 5.44219H78.7416V20.5542H74.1909V19.1333C73.119 20.363 71.6129 20.9778 69.6698 20.9778C67.7266 20.9778 65.9577 20.2071 64.5432 18.6656C63.1257 17.1241 62.4199 15.2354 62.4199 12.9967C62.4199 10.758 63.1287 8.86938 64.5432 7.32788C65.9577 5.78638 67.6676 5.01562 69.6698 5.01562C71.6719 5.01562 73.119 5.63046 74.1909 6.86013V5.43924V5.44219ZM67.9717 15.6885C68.6391 16.3533 69.5073 16.6857 70.5823 16.6857C71.6572 16.6857 72.5254 16.3533 73.1928 15.6885C73.8602 15.0236 74.1939 14.1264 74.1939 12.9997C74.1939 11.8729 73.8602 10.9757 73.1928 10.3109C72.5254 9.64601 71.6542 9.31359 70.5823 9.31359C69.5103 9.31359 68.6391 9.64601 67.9717 10.3109C67.3043 10.9757 66.9706 11.8729 66.9706 12.9997C66.9706 14.1264 67.3043 15.0236 67.9717 15.6885Z" fill="#00CC57"/>
<path d="M88.7522 20.978C86.4458 20.978 84.5293 20.2132 83.0025 18.6805C81.4758 17.1508 80.7109 15.2563 80.7109 12.997C80.7109 10.7377 81.4758 8.84609 83.0025 7.31341C84.5293 5.78368 86.4458 5.01587 88.7522 5.01587C90.2081 5.01587 91.5488 5.36888 92.7713 6.07492C93.9939 6.78095 94.9419 7.71644 95.6093 8.88727L91.6344 11.1848C91.0881 10.0581 90.1077 9.49328 88.6902 9.49328C87.6979 9.49328 86.8799 9.81982 86.2332 10.4758C85.5865 11.1319 85.2616 11.9732 85.2616 12.9999C85.2616 14.0266 85.5865 14.8679 86.2332 15.524C86.8799 16.18 87.7009 16.5065 88.6902 16.5065C90.1254 16.5065 91.1058 15.9417 91.6344 14.815L95.6093 17.0831C94.9419 18.2716 93.9998 19.2189 92.7861 19.9249C91.5724 20.6309 90.2258 20.9839 88.7492 20.9839L88.7522 20.978Z" fill="#00CC57"/>
<path d="M117.974 14.8118C118.499 16.2239 119.713 16.927 121.615 16.927C122.849 16.927 123.821 16.5445 124.527 15.7797L128.168 17.8654C126.671 19.9423 124.465 20.9778 121.553 20.9778C119.004 20.9778 116.967 20.2218 115.44 18.7097C113.913 17.1976 113.148 15.2943 113.148 12.9967C113.148 10.6992 113.901 8.81937 115.411 7.29846C116.917 5.77755 118.854 5.01562 121.222 5.01562C123.428 5.01562 125.262 5.77755 126.73 7.29846C128.197 8.81937 128.93 10.7198 128.93 12.9967C128.93 13.641 128.868 14.247 128.747 14.8089H117.974V14.8118ZM117.882 11.4258H124.406C123.96 9.83428 122.888 9.03706 121.19 9.03706C119.492 9.03706 118.328 9.83428 117.882 11.4258Z" fill="#00CC57"/>
<path d="M135.45 8.13145C135.734 7.1636 136.304 6.42521 137.166 5.9104C138.025 5.39558 138.97 5.13965 140.004 5.13965V10.279C138.89 10.0966 137.854 10.2848 136.894 10.8379C135.934 11.3939 135.453 12.3559 135.453 13.7238V20.5547H130.902V5.44265H135.453V8.13145H135.45Z" fill="#00CC57"/>
<path d="M8.33585 20.9953C3.92394 20.9953 0.335938 17.421 0.335938 13.026C0.335938 8.63092 3.92394 5.05664 8.33585 5.05664V9.56347C6.4193 9.56347 4.86007 11.1167 4.86007 13.026C4.86007 14.9352 6.4193 16.4885 8.33585 16.4885C10.2524 16.4885 11.8116 14.9352 11.8116 13.026H16.3358C16.3358 17.421 12.7478 20.9953 8.33585 20.9953Z" fill="#114446"/>
<path d="M25.7089 5.05664C21.297 5.05664 17.709 8.63092 17.709 13.026C17.709 17.421 21.297 20.9953 25.7089 20.9953C30.1208 20.9953 33.7088 17.421 33.7088 13.026C33.7088 8.63092 30.1208 5.05664 25.7089 5.05664ZM25.7089 16.4885C23.7923 16.4885 22.2331 14.9352 22.2331 13.026C22.2331 11.1167 23.7923 9.56347 25.7089 9.56347C27.6255 9.56347 29.1847 11.1167 29.1847 13.026C29.1847 14.9352 27.6255 16.4885 25.7089 16.4885Z" fill="#114446"/>
<path d="M12.8223 20.9951C11.8537 22.5602 10.1793 23.4927 8.33657 23.4927C6.49384 23.4927 4.81944 22.5602 3.85083 20.9951L0 23.3574C1.79843 26.2639 4.91394 27.9995 8.33657 27.9995C11.7592 27.9995 14.8747 26.2639 16.6731 23.3574L12.8223 20.9951Z" fill="#114446"/>
<path d="M16.3359 13.026H11.8117L11.8855 9.48992L8.33594 9.56347V5.05664H16.3359V13.026Z" fill="#00CC57"/>
<path d="M109.767 6.68081C108.683 5.57176 107.333 5.0187 105.715 5.0187C103.733 5.0187 102.286 5.63354 101.377 6.86321V0H96.8262V20.5543H101.377V12.3026C101.377 11.2759 101.631 10.4993 102.136 9.97563C102.641 9.45199 103.329 9.19017 104.2 9.19017C104.968 9.19017 105.6 9.42845 106.096 9.90208C106.592 10.3757 106.84 11.0553 106.84 11.9437V20.5573H111.391V11.2788C111.391 9.32549 110.85 7.79281 109.767 6.68376V6.68081Z" fill="#00CC57"/>
</g>
<defs>
<clipPath id="clip0_3684_175404">
<rect width="140" height="28" fill="white"/>
</clipPath>
</defs>
</svg>
